<?xml version="1.0" encoding="UTF-8" standalone="no"?>
<!-- Created with Inkscape (http://www.inkscape.org/) -->

<svg
   xmlns:osb="http://www.openswatchbook.org/uri/2009/osb"
   xmlns:dc="http://purl.org/dc/elements/1.1/"
   xmlns:cc="http://creativecommons.org/ns#"
   xmlns:rdf="http://www.w3.org/1999/02/22-rdf-syntax-ns#"
   xmlns:svg="http://www.w3.org/2000/svg"
   xmlns="http://www.w3.org/2000/svg"
   xmlns:sodipodi="http://sodipodi.sourceforge.net/DTD/sodipodi-0.dtd"
   xmlns:inkscape="http://www.inkscape.org/namespaces/inkscape"
   width="210mm"
   height="297mm"
   viewBox="0 0 210 297"
   version="1.1"
   id="svg8"
   inkscape:version="0.92.4 (5da689c313, 2019-01-14)"
   sodipodi:docname="LOGONOMBRE.svg">
  <defs
     id="defs2">
    <linearGradient
       id="linearGradient2735"
       osb:paint="solid">
      <stop
         style="stop-color:#b673b3;stop-opacity:1;"
         offset="0"
         id="stop2733" />
    </linearGradient>
  </defs>
  <sodipodi:namedview
     id="base"
     pagecolor="#ffffff"
     bordercolor="#666666"
     borderopacity="1.0"
     inkscape:pageopacity="0.0"
     inkscape:pageshadow="2"
     inkscape:zoom="0.98994949"
     inkscape:cx="424.27252"
     inkscape:cy="757.44851"
     inkscape:document-units="mm"
     inkscape:current-layer="layer1"
     showgrid="false"
     inkscape:window-width="1280"
     inkscape:window-height="961"
     inkscape:window-x="-8"
     inkscape:window-y="-8"
     inkscape:window-maximized="1" />
  <metadata
     id="metadata5">
    <rdf:RDF>
      <cc:Work
         rdf:about="">
        <dc:format>image/svg+xml</dc:format>
        <dc:type
           rdf:resource="http://purl.org/dc/dcmitype/StillImage" />
        <dc:title />
      </cc:Work>
    </rdf:RDF>
  </metadata>
  <g
     inkscape:label="Capa 1"
     inkscape:groupmode="layer"
     id="layer1">
    <rect
       style="fill:none;fill-opacity:0;stroke-width:0.26458332"
       id="rect10"
       width="44.601189"
       height="27.970238"
       x="64.255951"
       y="61.142857"
       rx="2.0481687"
       ry="2.0481687" />
    <rect
       style="fill:none;fill-opacity:0;stroke-width:0.26458332"
       id="rect12"
       width="30.994047"
       height="13.607143"
       x="64.255951"
       y="61.142857"
       rx="2.0481687"
       ry="2.0481687" />
    <rect
       style="fill:none;fill-opacity:0;stroke-width:0.26458332"
       id="rect16"
       width="36.348656"
       height="35.01231"
       x="49.979401"
       y="47.102989"
       rx="2.0481687"
       ry="2.0481687" />
    <flowRoot
       xml:space="preserve"
       id="flowRoot1171"
       style="font-style:normal;font-variant:normal;font-weight:normal;font-stretch:normal;font-size:40px;line-height:1.25;font-family:'Bradley Hand ITC';-inkscape-font-specification:'Bradley Hand ITC, Normal';font-variant-ligatures:normal;font-variant-caps:normal;font-variant-numeric:normal;text-align:center;letter-spacing:0px;word-spacing:0px;writing-mode:lr-tb;text-anchor:middle;fill:#000000;fill-opacity:1;stroke:none"
       transform="matrix(0.26458333,0,0,0.26458333,-0.26726952,12.828937)"><flowRegion
         id="flowRegion1173"><rect
           id="rect1175"
           width="71.007156"
           height="53.064064"
           x="173.74623"
           y="156.81386" /></flowRegion><flowPara
         id="flowPara1177"
         style="font-style:normal;font-variant:normal;font-weight:normal;font-stretch:extra-condensed;font-size:40px;font-family:Algerian;-inkscape-font-specification:'Algerian, Extra-Condensed';font-variant-ligatures:normal;font-variant-caps:normal;font-variant-numeric:normal;font-feature-settings:normal;text-align:center;writing-mode:lr-tb;text-anchor:middle">CAPMI</flowPara></flowRoot>    <flowRoot
       xml:space="preserve"
       id="flowRoot2795"
       style="fill:black;fill-opacity:1;stroke:none;font-family:'Bradley Hand ITC';font-style:normal;font-weight:normal;font-size:40px;line-height:1.25;letter-spacing:0px;word-spacing:0px;-inkscape-font-specification:'Bradley Hand ITC, Normal';font-stretch:normal;font-variant:normal;text-anchor:middle;text-align:center;writing-mode:lr;font-variant-ligatures:normal;font-variant-caps:normal;font-variant-numeric:normal"><flowRegion
         id="flowRegion2797"><rect
           id="rect2799"
           width="116.16754"
           height="41.416256"
           x="264.65997"
           y="158.83415" /></flowRegion><flowPara
         id="flowPara2801" /></flowRoot>    <rect
       style="fill:#650e19;fill-opacity:1;fill-rule:evenodd;stroke-width:0.26458332"
       id="rect82"
       width="44.099468"
       height="25.123335"
       x="3.4745035"
       y="2.7362494"
       rx="2.0481687"
       ry="2.0481687" />
    <path
       style="opacity:0.95;fill:#ffffff;fill-opacity:1;fill-rule:evenodd;stroke-width:0.26458332"
       id="path90"
       d="m 19.295472,9.6726269 c -0.340095,-0.814102 -0.823963,-1.552546 -1.312524,-2.28296 -0.315669,-0.560202 -0.715383,-1.063517 -1.166098,-1.520163 -0.375317,-0.434546 -0.872257,-0.533687 -1.414563,-0.601806 -0.561512,-0.02747 -1.138076,-0.100665 -1.693198,0.0086 -0.539314,0.09517 -1.072333,0.174219 -1.603111,0.30667 -0.540411,0.223544 -1.093279,0.457241 -1.591148,0.770453 6.354429,-3.291966 3.283574,-2.209522 2.381633,-1.224037 -0.208838,0.22818 -0.211703,0.268087 -0.363445,0.535137 -0.320638,0.623324 -0.583975,1.267244 -0.748069,1.948805 -0.12014,0.572625 -0.134051,1.159317 -0.143389,1.742109 -0.0069,0.6563571 -0.0019,1.3127091 0.0026,1.9690591 -0.025,0.520668 0.01117,1.025953 0.11289,1.535393 0.07384,0.498562 0.252733,0.970994 0.457282,1.428736 0.203626,0.506482 0.50378,0.957877 0.802669,1.411023 0.311838,0.465339 0.591741,0.950169 0.887743,1.425432 0.370446,0.449644 0.708332,0.926341 1.087599,1.368187 0.276783,0.429763 0.737198,0.659172 1.10281,1.000231 0.437616,0.326255 0.851059,0.682916 1.2837,1.015145 0.394592,0.260549 0.76441,0.519039 1.217052,0.668007 0.599326,0.142449 1.166529,0.367869 1.791247,0.341863 -0.197538,0.30217 1.209567,-0.581522 0.837669,-0.371168 -5.347484,3.024629 -3.631036,2.229847 -2.523676,1.33596 0.51366,-0.420586 0.97246,-0.8807 1.253797,-1.486603 0,0 3.584072,-1.660102 3.584072,-1.660102 v 0 c -0.227261,0.681747 -0.635965,1.211252 -1.190595,1.66923 -1.297446,1.172985 -2.218315,1.476999 -4.20102,2.605516 -0.164658,0.09372 -0.444529,0.172746 -0.631166,0.198305 -0.108665,0.01487 -0.219089,0.01082 -0.328634,0.01625 -0.642054,-0.06741 -1.252858,-0.25781 -1.869588,-0.442363 -0.468434,-0.19405 -0.883248,-0.468161 -1.290212,-0.769069 -0.426632,-0.351862 -0.862462,-0.691269 -1.293931,-1.036426 -0.391456,-0.336928 -0.851675,-0.596382 -1.127625,-1.05128 -0.37978,-0.46659 -0.745501,-0.944634 -1.122775,-1.413552 -0.288605,-0.474821 -0.5630362,-0.958654 -0.8779252,-1.41682 -0.309872,-0.469929 -0.620009,-0.939707 -0.831509,-1.464807 -0.223655,-0.479589 -0.425812,-0.97908 -0.511077,-1.503675 -0.107077,-0.535702 -0.177009,-1.061995 -0.133546,-1.611273 5.3e-4,-0.657931 -0.0016,-1.315839 -0.0043,-1.973754 0.0021,-0.606825 0.0011,-1.2166711 0.108614,-1.8163441 0.144113,-0.71057 0.386154,-1.386287 0.71152,-2.035082 0.225936,-0.535379 0.495816,-0.98644 1.007195,-1.287544 1.2099522,-0.712431 2.4216302,-1.421931 3.6324462,-2.132896 0.533471,-0.27262 1.080621,-0.540971 1.664303,-0.685178 0.537559,-0.120385 1.08666,-0.183158 1.630423,-0.269345 0.585079,-0.02501 1.173835,-0.0031 1.753579,0.08321 0.60774,0.12173 1.144982,0.329488 1.559915,0.813465 0.447087,0.490187 0.864584,1.005589 1.17638,1.594832 0.485925,0.750399 0.949827,1.514145 1.371877,2.302609 0,0 -3.445819,1.961997 -3.445819,1.961997 z"
       inkscape:connector-curvature="0" />
    <path
       style="opacity:0.95;fill:#ffffff;fill-opacity:1;fill-rule:evenodd;stroke-width:0.26458332"
       id="path92"
       d="m 30.650304,5.7397459 c 0.12795,1.017461 0.364977,2.018012 0.524301,3.031713 0.197702,0.96802 0.364302,1.9401151 0.448228,2.9247941 0.06996,0.869966 0.05599,1.743189 0.05943,2.615065 -0.02265,0.714782 0.01201,1.419593 0.119129,2.125673 0.09218,0.548624 0.129635,1.103418 0.150191,1.65863 0.125415,0.602944 0.32072,1.186146 0.43284,1.793227 0.06005,0.553403 0.121158,1.101871 0.220149,1.649963 0.107484,0.525283 0.08352,1.065459 0.232002,1.581423 0.03013,0.08714 0.06027,0.174283 0.0904,0.261424 0,0 -3.457943,1.911768 -3.457943,1.911768 v 0 c -0.03244,-0.09088 -0.06488,-0.181756 -0.09731,-0.272635 -0.178599,-0.530265 -0.175167,-1.075229 -0.257296,-1.625319 -0.09701,-0.550395 -0.189336,-1.095079 -0.217192,-1.654427 -0.09928,-0.627597 -0.281442,-1.231183 -0.463565,-1.838933 -0.01413,-0.542147 -0.03984,-1.084654 -0.1225,-1.621438 -0.106095,-0.729597 -0.164089,-1.452756 -0.116559,-2.191608 5.29e-4,-0.862076 -0.0071,-1.72472 -0.05044,-2.585839 -0.07039,-0.980434 -0.208503,-1.951791 -0.404802,-2.915324 -0.149426,-1.0079781 -0.38436,-1.9928891 -0.595514,-2.9879641 0,0 3.506452,-1.860193 3.506452,-1.860193 z"
       inkscape:connector-curvature="0" />
    <path
       style="opacity:0.95;fill:#ffffff;fill-opacity:1;fill-rule:evenodd;stroke-width:0.26458332"
       id="path94"
       d="m 28.505226,11.106544 c 0.522055,-0.570185 0.955149,-1.2091881 1.401411,-1.8379121 0.340249,-0.405863 0.517178,-0.905478 0.813874,-1.338778 1.102572,-1.553034 2.986786,-2.168854 4.61206,-3.110606 0.553046,-0.235478 1.150821,-0.28179 1.743798,-0.306323 0.542149,-0.01319 1.084537,-0.0065 1.626772,-0.0035 0.62013,-0.01497 1.225769,0.0014 1.836526,0.106212 0.552828,0.07937 1.091755,0.267103 1.551672,0.585563 0.466911,0.358651 0.804797,0.819604 1.10522,1.318085 0.288317,0.476517 0.383609,1.026454 0.550926,1.549405 0.157414,0.47879 0.200978,0.980554 0.228079,1.480511 0.02069,0.5310931 0.01805,1.0627361 0.01754,1.5941281 0.04523,0.57296 -0.12732,1.043564 -0.512194,1.461693 -1.326284,1.018746 -2.929641,1.796245 -4.344648,2.562942 -0.09347,0.05064 -0.207746,0.04591 -0.309857,0.07548 -0.104375,0.03022 -0.206031,0.06915 -0.309046,0.103719 -0.580292,0.22352 -1.211019,0.204164 -1.806149,0.347753 -0.537094,0.137798 -1.088835,0.187394 -1.64075,0.21541 -0.685496,0.01704 -1.371259,0.01127 -2.056892,0.01125 -0.696759,-0.0529 -1.382683,-0.210748 -2.033431,-0.4641 -0.352989,-0.167574 -0.658757,-0.419846 -0.963534,-0.661519 0,0 3.34435,-2.107772 3.34435,-2.107772 v 0 c 0.280381,0.212313 0.555953,0.44119 0.892677,0.558663 0.630614,0.204306 1.271543,0.373626 1.940949,0.363188 0.686475,-0.0011 1.373921,-2.25e-4 2.059189,-0.04554 0.542419,-0.04611 1.077968,-0.132379 1.609376,-0.251269 0.598386,-0.08487 1.19789,-0.168868 1.766945,-0.384913 1.36447,-0.455264 2.740501,-1.489067 -2.533655,1.593741 -0.165391,0.09667 0.329925,-0.195067 0.490072,-0.300196 0.07316,-0.04803 0.148606,-0.09248 0.222906,-0.138721 0.43511,-0.256217 0.701857,-0.620572 0.66,-1.144963 7.94e-4,-0.525286 0.0037,-1.050711 -0.01093,-1.575851 -0.01894,-0.467251 -0.04513,-0.93821 -0.183655,-1.3883061 -0.154308,-0.495344 -0.2324,-1.017291 -0.494334,-1.472395 -0.273572,-0.447125 -0.576019,-0.863142 -1.021885,-1.156904 -0.446712,-0.255487 -0.937127,-0.397055 -1.448154,-0.456636 -0.599856,-0.07922 -1.203674,-0.05388 -1.807583,-0.05586 -0.536438,-0.0021 -1.073574,-0.0088 -1.609275,0.02461 -0.568206,0.05028 -1.130869,0.145026 -1.630522,0.439473 6.627075,-3.869024 3.306554,-2.109632 2.406642,-1.330967 -0.160652,0.139006 -0.197847,0.222778 -0.315126,0.400149 -0.349944,0.417273 -0.527897,0.898769 -0.829675,1.346825 -0.483185,0.593164 -0.856475,1.266881 -1.371468,1.835592 0,0 -3.648221,1.5586581 -3.648221,1.5586581 z"
       inkscape:connector-curvature="0" />
  </g>
</svg>
